# xmcd
#
# Track frame offsets:
# 150
# 18252
# 29615
# 42476
# 62556
#
# Disc length: 1053 seconds
#
#
# Revision: 0
# Processed by: cddbd v1.5.2PL0 Copyright (c) Steve Scherf et al.
# Submitted via: FreeRIP 2.943 
#
DISCID=3b041b05
DTITLE=lucika - the mangler [ep]
DYEAR=2007
DGENRE=Black Metal
TTITLE0=it follows
TTITLE1=shroud
TTITLE2=pope of nothing
TTITLE3=made humble by horns
TTITLE4=the mangler
EXTD=zz
EXTT0=
EXTT1=
EXTT2=
EXTT3=
EXTT4=
PLAYORDER=
